<svg width="100" height="157" viewBox="0 0 100 157" fill="none" xmlns="http://www.w3.org/2000/svg">
<path d="M11.9716 155.038H9.97925V144.044H11.9716V155.038Z" fill="url(#paint0_linear_47_34)"/>
<path d="M24.2381 146.04H19.8463V155.042H17.854V146.04H13.4536V144.048H24.2424V146.04H24.2381Z" fill="url(#paint1_linear_47_34)"/>
<path d="M37.3585 150.595C37.3585 151.105 37.2899 151.589 37.1571 152.039C37.02 152.493 36.8314 152.9 36.5829 153.269C36.3344 153.637 36.0345 153.959 35.6874 154.233C35.3361 154.507 34.9462 154.725 34.5177 154.884L36.8486 156.731H33.9564L32.0412 155.188H30.0788C29.4189 155.188 28.8105 155.073 28.2449 154.845C27.6837 154.618 27.1952 154.301 26.7882 153.89C26.3811 153.483 26.0598 152.994 25.8241 152.433C25.5927 151.872 25.4771 151.255 25.4771 150.586V148.487C25.4771 147.823 25.5927 147.21 25.8241 146.645C26.0555 146.079 26.3768 145.595 26.7882 145.188C27.1952 144.781 27.6837 144.464 28.2449 144.232C28.8062 144.001 29.4189 143.885 30.0788 143.885H32.7781C33.438 143.885 34.0464 144.001 34.6077 144.232C35.169 144.464 35.6531 144.781 36.0602 145.188C36.4672 145.595 36.7886 146.079 37.02 146.645C37.2513 147.21 37.367 147.823 37.367 148.487V150.595H37.3585ZM35.3618 148.491C35.3618 148.097 35.2975 147.741 35.1733 147.42C35.049 147.099 34.8733 146.829 34.6462 146.602C34.4192 146.375 34.1449 146.199 33.8279 146.075C33.5065 145.95 33.1552 145.886 32.7738 145.886H30.0745C29.6846 145.886 29.3333 145.95 29.0119 146.075C28.6906 146.199 28.4163 146.375 28.1892 146.602C27.9579 146.829 27.7822 147.103 27.6579 147.42C27.5337 147.741 27.4694 148.097 27.4694 148.491V150.591C27.4694 150.985 27.5337 151.341 27.6579 151.662C27.7822 151.983 27.9622 152.253 28.1892 152.48C28.4206 152.707 28.6948 152.883 29.0119 153.007C29.3333 153.132 29.6846 153.196 30.0745 153.196H32.7567C33.1466 153.196 33.498 153.132 33.8193 153.007C34.1407 152.883 34.4149 152.707 34.642 152.48C34.8733 152.253 35.049 151.979 35.1733 151.662C35.2975 151.341 35.3618 150.985 35.3618 150.591V148.491Z" fill="url(#paint2_linear_47_34)"/>
<path d="M50.0964 154.036C50.0964 154.177 50.0707 154.31 50.0193 154.434C49.9679 154.558 49.895 154.661 49.805 154.751C49.7151 154.841 49.6037 154.91 49.4837 154.961C49.3594 155.013 49.2309 155.038 49.0938 155.038H44.6034C44.1793 155.038 43.7508 154.991 43.3138 154.901C42.881 154.811 42.4611 154.666 42.0541 154.477C41.647 154.284 41.2657 154.04 40.9101 153.744C40.5501 153.449 40.2374 153.097 39.9717 152.69C39.7018 152.283 39.4918 151.821 39.3376 151.293C39.1833 150.771 39.1062 150.184 39.1062 149.541V144.044H41.0986V149.541C41.0986 150.102 41.1757 150.578 41.3342 150.968C41.4885 151.358 41.6899 151.679 41.9298 151.94C42.1698 152.202 42.4311 152.408 42.7182 152.553C43.0053 152.703 43.2752 152.81 43.5366 152.883C43.7936 152.956 44.0207 152.999 44.2178 153.016C44.4149 153.033 44.5435 153.042 44.6034 153.042H48.1083V144.04H50.1007V154.036H50.0964Z" fill="url(#paint3_linear_47_34)"/>
<path d="M62.3508 155.038H55.1612C54.8869 155.038 54.5827 154.991 54.2571 154.892C53.9315 154.794 53.6272 154.635 53.3487 154.412C53.0702 154.19 52.8389 153.903 52.6503 153.547C52.4618 153.191 52.3718 152.754 52.3718 152.24V145.05C52.3718 144.913 52.3975 144.781 52.4489 144.661C52.5004 144.536 52.5689 144.429 52.6589 144.339C52.7489 144.249 52.856 144.176 52.976 144.125C53.1002 144.074 53.2331 144.048 53.3745 144.048H62.3508V146.04H54.3642V152.244C54.3642 152.506 54.4328 152.703 54.5699 152.844C54.707 152.981 54.9083 153.05 55.174 153.05H62.3508V155.038ZM61.451 150.548H55.1569V148.538H61.451V150.548Z" fill="url(#paint4_linear_47_34)"/>
<path d="M74.2105 155.038H67.0208C66.7466 155.038 66.4423 154.991 66.1167 154.892C65.7911 154.794 65.4869 154.635 65.2084 154.412C64.9299 154.19 64.6985 153.903 64.51 153.547C64.3214 153.191 64.2314 152.754 64.2314 152.24V145.05C64.2314 144.913 64.2572 144.781 64.3086 144.661C64.36 144.536 64.4286 144.429 64.5185 144.339C64.6085 144.249 64.7156 144.176 64.8356 144.125C64.9599 144.074 65.0927 144.048 65.2341 144.048H74.2105V146.04H66.2238V152.244C66.2238 152.506 66.2924 152.703 66.4295 152.844C66.5666 152.981 66.768 153.05 67.0336 153.05H74.2105V155.038ZM73.3107 150.548H67.0165V148.538H73.3107V150.548Z" fill="url(#paint5_linear_47_34)"/>
<path d="M87.1202 154.19C87.1202 154.331 87.0945 154.464 87.0388 154.588C86.9831 154.713 86.9145 154.815 86.8245 154.905C86.7346 154.995 86.6274 155.064 86.5075 155.115C86.3832 155.167 86.2547 155.193 86.1176 155.193C85.9933 155.193 85.869 155.171 85.7448 155.124C85.6205 155.077 85.5091 155.004 85.4106 154.901L78.1266 147.296V155.038H76.1343V144.896C76.1343 144.691 76.19 144.507 76.3056 144.339C76.4213 144.172 76.567 144.048 76.747 143.967C76.9355 143.89 77.1283 143.872 77.3297 143.911C77.5311 143.95 77.6982 144.044 77.8439 144.189L85.1278 151.786V144.044H87.1202V154.19Z" fill="url(#paint6_linear_47_34)"/>
<path d="M99.9998 151.803C99.9998 152.197 99.9484 152.549 99.8498 152.866C99.7513 153.179 99.6185 153.457 99.4557 153.697C99.2928 153.937 99.1 154.143 98.8815 154.31C98.663 154.477 98.4359 154.618 98.2002 154.725C97.9646 154.832 97.7246 154.914 97.4847 154.961C97.2405 155.012 97.0134 155.038 96.7992 155.038H89.1082V153.046H96.7992C97.1805 153.046 97.4804 152.934 97.6904 152.707C97.9046 152.484 98.0074 152.18 98.0074 151.803C98.0074 151.619 97.9774 151.452 97.9217 151.298C97.866 151.143 97.7846 151.011 97.6818 150.899C97.579 150.788 97.4504 150.698 97.3005 150.638C97.1505 150.578 96.9834 150.548 96.7992 150.548H92.2145C91.8932 150.548 91.5461 150.492 91.1734 150.376C90.8006 150.261 90.4536 150.076 90.1365 149.819C89.8151 149.562 89.5495 149.228 89.3395 148.817C89.1296 148.405 89.0225 147.896 89.0225 147.3C89.0225 146.7 89.1296 146.199 89.3395 145.788C89.5538 145.376 89.8194 145.042 90.1365 144.785C90.4578 144.528 90.8006 144.339 91.1734 144.224C91.5461 144.108 91.8932 144.052 92.2145 144.052H99.0015V146.045H92.2145C91.8375 146.045 91.5419 146.16 91.3276 146.392C91.1134 146.623 91.0106 146.927 91.0106 147.304C91.0106 147.686 91.1177 147.99 91.3276 148.213C91.5376 148.435 91.8332 148.547 92.2145 148.547H96.7992H96.8163C97.0305 148.551 97.2576 148.581 97.4976 148.637C97.7375 148.693 97.9774 148.774 98.2131 148.885C98.4487 148.997 98.6758 149.138 98.8901 149.31C99.1043 149.481 99.2971 149.687 99.4599 149.927C99.627 150.166 99.7556 150.445 99.8541 150.753C99.9527 151.058 99.9998 151.409 99.9998 151.803Z" fill="url(#paint7_linear_47_34)"/>
<path d="M83.1611 126.558C81.4644 122.359 80.0848 118.031 78.568 113.76C78.7651 113.687 78.9622 113.614 79.1593 113.541C79.682 114.861 80.1876 116.185 80.7232 117.496C82.0171 120.649 83.551 123.691 86.1904 125.932C87.0173 126.631 87.8657 127.231 88.7355 127.728C88.457 127.286 88.1999 126.824 87.9728 126.339C87.78 126.202 87.5915 126.065 87.403 125.915C84.8579 123.876 83.1826 121.121 82.0214 118.147C79.9348 112.808 79.6863 112.337 75.9758 101.54C75.0974 98.9817 74.6218 97.6192 75.2859 96.2524C76.25 94.26 78.5551 94.4914 83.4354 92.2119C85.8776 91.0679 85.642 90.8537 90.1494 88.3C92.6003 86.9118 95.2911 85.4936 98.2218 84.0925C97.9476 84.1782 97.5277 84.311 97.0221 84.4867C92.6517 85.9992 89.6867 87.8458 88.5556 88.5228C85.3935 90.4081 76.8627 95.4983 73.8891 93.0474C72.6166 91.9977 71.6697 89.0027 71.584 87.6359C71.5754 87.4688 71.5283 86.8561 71.374 86.042C71.2798 85.5407 71.1169 84.9323 70.8127 84.2082C69.7116 81.5774 69.9901 79.2765 71.8239 77.0785C72.6509 76.0887 72.1495 75.3817 71.0055 75.0647C70.0672 74.8076 69.0946 74.6448 68.2034 74.2763C67.6892 74.0621 67.1793 73.6079 66.8837 73.1237C64.4971 69.2418 62.1234 65.347 59.8183 61.418C58.1858 58.6372 56.5533 55.8436 55.1222 52.9558C54.4067 51.5118 53.9397 49.8708 53.7169 48.2683C52.8985 42.3855 56.172 39.5704 61.8578 39.9732C69.6944 40.5302 76.3271 43.5895 80.5346 50.6892C80.976 51.4304 81.6015 52.0646 82.1414 52.7501C82.2314 52.6815 82.3256 52.6087 82.4156 52.5402C82.3385 52.2102 82.2614 51.876 82.1243 51.2805C82.587 51.8846 82.8526 52.2359 83.4097 52.9643C83.2768 52.2831 83.2811 52.026 83.1826 51.8203C81.323 47.9513 79.6434 43.9751 77.4968 40.2688C76.5799 38.6921 74.8532 37.321 73.1821 36.5069C69.3088 34.6217 65.1312 34.1203 60.8808 35.1487C55.1694 36.5283 52.6114 39.8447 52.6543 45.7404C52.6929 51.2547 54.4539 56.2378 57.5774 60.711C60.4738 64.8543 67.385 75.4417 70.5899 85.9906C71.7554 89.8254 72.2395 93.0774 72.4666 95.1298C72.2567 94.847 72.0467 94.5599 71.8368 94.2771C70.8727 92.7604 69.7244 91.325 68.9789 89.7097C67.3507 86.1705 65.8553 82.5714 64.4414 78.9423C62.1877 73.1494 58.5414 68.1621 55.3108 62.9348C51.1504 56.2035 49.8135 49.1081 52.1787 41.4386C52.3415 40.9073 52.2472 40.2988 52.273 39.7247C52.1144 39.6433 51.9559 39.5619 51.7974 39.4848C51.3732 39.9861 50.7133 40.4274 50.5719 40.9972C50.0578 43.0196 49.4279 45.0762 49.3765 47.1329C49.2523 52.1674 49.8649 57.1547 51.1032 62.0564C53.4469 71.337 57.3074 79.8635 63.713 87.0875C66.4638 90.1896 69.4202 93.1117 72.1453 96.2309C74.2919 98.6903 75.3245 101.741 76.1171 104.886C74.4718 102.015 72.1838 99.7701 69.5316 97.8763C67.9463 96.7408 66.3138 95.6782 64.7242 94.5471C56.4462 88.6642 50.9961 80.6133 47.5469 71.2427C44.989 64.293 45.2504 57.0091 46.5529 49.8108C47.0928 46.8244 48.1168 43.928 48.8923 41.1001C47.0371 41.7599 45.4732 43.4781 44.9376 45.6675C42.6881 54.8753 43.9393 63.826 47.187 72.5496C50.4948 81.4317 56.0906 88.7756 63.0789 95.1041C63.5802 95.5582 64.0687 96.0253 64.5657 96.488C64.48 96.5909 64.3986 96.6937 64.3129 96.7965C62.6633 95.7939 61.0137 94.8041 59.3727 93.793C55.3236 91.3036 51.3817 88.5828 48.7852 84.5552C44.342 77.6655 41.6041 70.1159 41.9555 61.7865C42.1611 56.9791 42.8252 52.1974 43.2837 47.4028C43.3223 47.0129 43.348 46.6187 43.378 46.2288C43.228 46.1688 43.0823 46.1131 42.9324 46.0532C42.6753 46.6359 42.2297 47.2057 42.1911 47.8013C41.8783 52.7587 41.6127 57.7203 41.3985 62.6863C41.2571 65.9597 41.2271 69.2332 41.1328 72.5067C41.1285 72.5881 40.97 72.6652 40.8329 72.7895V48.3497C39.8345 49.3909 38.5363 50.295 38.2492 52.0174C36.8481 60.4282 37.2809 68.8262 39.0248 77.0956C40.4087 83.6554 42.264 90.1253 44.1064 96.5823C46.5358 105.087 47.4698 105.019 48.4296 109.89C50.4477 120.152 50.9233 126.986 50.9233 126.986C51.0989 129.527 51.1889 132.081 52.9628 134.549C54.7066 136.97 57.2217 138.114 58.927 138.679C58.7599 138.538 58.4686 138.349 58.2072 138.024C55.4307 134.604 53.7683 130.68 53.0142 126.361C52.5986 123.987 52.2301 121.609 51.853 119.231C51.8102 118.953 51.8488 118.657 51.8488 118.631C57.7102 127.856 64.3129 138.156 64.5314 138.024C64.6642 137.942 62.4233 133.91 60.221 130.234C53.2841 118.657 48.5924 113.708 47.5984 104.805C47.5684 104.547 47.5512 104.338 47.5384 104.226C47.6241 104.196 47.7141 104.166 47.7998 104.136C48.948 106.463 50.0749 108.802 51.2489 111.116C54.591 117.693 58.957 123.554 63.8287 129.064C65.8211 131.318 67.3978 133.816 68.1262 136.773C68.2762 137.381 68.7047 138.165 68.2462 138.658C68.906 137.861 69.8444 136.507 70.32 134.63C70.6842 133.191 70.6628 131.198 69.7373 127.805C68.7432 124.167 66.6652 120.962 63.7216 118.074C60.1739 114.595 56.5448 111.163 53.357 107.367C51.0261 104.59 49.3551 101.261 47.3927 98.1762C47.5341 98.0819 47.6798 97.9877 47.8212 97.8934C48.2882 98.5361 48.7638 99.1702 49.2137 99.8215C52.3029 104.308 56.6562 107.375 60.9537 110.563C63.8159 112.684 66.5623 115.071 68.9103 117.736C71.6054 120.786 72.4195 124.741 72.6766 128.756C72.7451 129.823 72.6851 130.898 72.7494 131.969C73.4307 122.295 71.8368 116.823 64.2872 110.79C62.2862 109.192 60.1653 107.74 58.0873 106.236C49.2951 99.8558 44.0249 91.3078 42.4568 80.5619C42.0069 77.4855 41.9212 74.3534 41.6684 71.247C41.8355 71.2213 41.9983 71.1956 42.1654 71.1742C42.2597 71.7569 42.3882 72.3353 42.4439 72.9223C42.5039 73.535 42.4868 74.152 42.5167 74.769C42.8381 80.6819 44.1106 86.3376 47.0628 91.5435C50.6833 97.9277 56.0006 102.559 62.1834 106.326C64.24 107.577 66.3352 108.811 68.1991 110.323C73.2507 114.424 75.2302 119.865 74.7332 126.284C74.6518 127.351 74.6004 128.422 74.5875 129.497C76.3614 120.709 74.3047 112.616 67.5435 107.662C64.9899 105.79 62.1791 104.243 59.4069 102.697C52.6071 98.9003 48.4596 92.9617 45.636 85.9263C45.1818 84.7952 44.8348 83.6169 44.6848 82.34C45.139 83.1884 45.5931 84.0368 46.0473 84.8851C48.0311 88.5914 50.6362 91.7492 53.8968 94.4442C59.3469 98.956 64.7242 103.558 70.0286 108.241C74.0905 111.827 77.0641 116.566 77.4711 122.265C77.6168 124.334 77.4026 127.303 78.4609 131.747C79.0093 134.056 79.6991 135.903 80.209 137.128C80.1919 137.06 80.149 136.965 80.1319 136.837C79.472 132.222 78.8293 127.603 78.2081 122.984C77.2054 115.482 74.2276 109.042 68.1862 104.239C66.0739 102.559 63.9487 100.893 61.9863 98.9389C62.599 99.2859 63.2374 99.603 63.8244 99.9929C66.4381 101.707 69.0389 103.438 71.6439 105.164C75.9715 108.035 78.0367 112.354 78.7779 117.239C79.7634 123.773 80.3718 130.367 81.1259 136.935C81.4601 135.371 81.5287 134.112 81.5373 133.302C81.5715 129.891 80.6161 128.152 80.2519 123.507C80.1833 122.62 80.1576 121.9 80.1447 121.476C80.2647 121.459 80.3847 121.442 80.5047 121.425C82.0814 126.266 83.6625 131.108 85.2435 135.967C85.3806 135.611 85.5263 135.101 85.5563 134.48C85.5777 134.073 85.5477 133.718 85.5006 133.43C85.7448 133.735 86.0833 134.065 86.546 134.33C88.2728 135.324 90.2223 134.532 90.5394 134.399C90.3894 134.326 90.1752 134.219 89.9181 134.082C86.7646 132.389 84.4723 129.81 83.1611 126.558ZM81.563 50.3378C76.4942 43.4524 72.0124 36.2627 62.2391 36.5669C70.8213 35.5643 77.9381 40.2217 81.563 50.3378ZM52.7914 61.0367C57.6288 69.9273 62.4619 78.8181 67.2993 87.7087C62.7875 85.8278 53.6997 68.8819 52.7914 61.0367Z" fill="url(#paint8_linear_47_34)"/>
<path d="M26.2651 127.128C26.2694 127.278 30.1813 128.216 33.7933 126.288C36.4884 124.848 37.7052 122.496 38.2922 121.425C40.306 117.757 40.4045 113.781 39.6976 109.74C39.5947 109.153 39.5476 108.554 39.4791 107.958C41.3558 110.469 42.834 115.602 42.8425 118.751C42.8597 124.06 39.7662 128.469 34.6931 129.99C32.7693 130.568 30.6955 130.65 28.5146 130.984C28.4975 131.091 28.4846 131.159 28.4846 131.159C28.4846 131.159 34.7059 132.428 38.665 130.298C41.54 128.751 42.6926 125.705 43.1425 124.518C45.2677 118.888 43.121 113.108 40.4388 106.805C38.4765 102.195 36.4369 97.5677 35.0701 92.7645C35.0016 92.5289 34.7745 91.5177 34.4146 90.0352C33.5576 86.5046 32.9235 84.0752 32.8078 83.6039C31.8052 79.6277 31.5653 73.4364 32.0537 68.1148C32.7907 59.9996 35.1944 54.1682 35.1944 54.1768C30.5241 63.0118 29.4358 70.3728 29.3544 75.5873C29.0545 95.0354 42.3841 107.654 36.167 120.139C35.61 121.262 34.3846 124.595 31.2439 126.164C28.7503 127.419 26.2609 127.008 26.2651 127.128Z" fill="url(#paint9_linear_47_34)"/>
<path d="M34.6459 76.4274C34.8302 78.1242 35.58 84.1613 39.7361 96.0298C42.1527 102.937 45.3876 109.587 46.5488 116.896C47.5128 122.963 46.5573 128.658 42.8082 133.675C42.0198 134.733 41.1929 135.376 40.3017 135.633C41.8913 135.012 44.1279 133.842 45.7689 131.584C46.5916 130.453 48.404 127.484 47.2214 118.289C46.1545 110.011 43.4209 103.322 42.2084 99.9631C38.9092 90.8239 38.5964 90.1984 37.4481 86.1708C34.7187 76.586 34.8002 64.319 34.6074 64.3232C34.4917 64.3275 33.8661 69.3406 34.6459 76.4274Z" fill="url(#paint10_linear_47_34)"/>
<path d="M66.738 61.4481C66.8323 60.4155 67.1836 58.2132 68.8033 56.1308C71.6054 52.5317 75.9072 52.2446 76.6099 52.2061C76.4985 52.6945 76.3871 53.1787 76.2757 53.6671C75.1145 53.8942 72.6852 54.5283 70.35 56.5036C68.212 58.3117 67.1879 60.3683 66.738 61.4481Z" fill="url(#paint11_linear_47_34)"/>
<path d="M81.1731 62.4634C80.9974 62.202 80.9503 61.9278 80.9417 61.7393C81.2631 61.8292 81.7558 61.9192 82.3471 61.8549C83.3454 61.7478 84.031 61.2594 84.3266 61.0237C84.1595 61.0966 83.1526 61.525 82.2228 61.028C81.9486 60.8823 81.7515 60.6938 81.6144 60.531C81.8115 60.4239 82.0129 60.3039 82.2143 60.1753C82.8398 59.7726 83.3669 59.3484 83.7996 58.9371C83.1012 59.3013 81.4944 60.0168 80.1491 59.3484C80.0762 59.3098 79.9991 59.267 79.9262 59.2199C79.802 58.9414 79.622 58.7143 79.4335 58.5258C79.1979 58.2901 78.9322 58.123 78.6666 57.973C78.1267 57.6902 77.5611 57.4974 76.9784 57.416C77.4583 57.7502 77.9253 58.0801 78.3152 58.4615C78.7051 58.83 79.0222 59.2713 79.0693 59.6483C79.1807 60.351 78.2124 61.0066 77.2826 61.465C76.8027 61.7007 76.2971 61.9106 75.7873 62.0992C75.2817 62.2877 74.7718 62.4248 74.2405 62.5276C73.1779 62.7333 72.0639 62.7547 70.8984 62.6776C71.087 62.7847 71.2841 62.8747 71.4854 62.9604C71.7982 63.3974 72.2867 63.9459 73.0022 64.4C74.9218 65.6126 76.987 65.1927 77.4926 65.077C77.3469 65.0427 76.687 64.8628 76.34 64.2329C76.1986 63.9801 76.1557 63.7316 76.1386 63.5645C76.5971 63.8259 77.3769 64.1987 78.4138 64.3229C79.1979 64.4172 79.8577 64.3401 80.3162 64.2501C80.0976 64.1515 79.5749 63.8773 79.2278 63.2775C79.0436 62.9604 78.9708 62.6605 78.9408 62.4505C79.125 62.6433 79.8877 63.3931 81.1045 63.4745C81.9615 63.5302 82.6128 63.226 82.887 63.0761C82.1757 63.1918 81.5116 62.9604 81.1731 62.4634Z" fill="url(#paint12_linear_47_34)"/>
<path d="M89.9695 75.5401C91.5677 73.4064 92.3475 71.5597 92.7631 70.2486C93.0844 69.2417 93.3672 67.9948 93.8728 67.9777C94.297 67.9648 94.6569 68.8346 94.7812 69.2631C95.1282 70.4371 94.6612 71.4825 94.4684 71.8639C95.8395 71.2726 97.2491 71.851 97.6219 72.7679C98.0461 73.8091 97.0478 75.0817 96.0366 75.5401C95.4667 75.8015 94.9226 75.7886 94.6055 75.7544C95.2525 74.8974 95.4839 74.1005 95.2054 73.8048C94.9311 73.5049 94.1556 73.7149 93.6586 73.9891C92.5703 74.5846 92.6088 75.6001 91.7691 75.9086C91.4434 76.0286 90.8864 76.0757 89.9695 75.5401Z" fill="url(#paint13_linear_47_34)"/>
<path d="M86.3062 59.3955C87.553 60.0211 88.7827 60.4495 90.1409 60.5267C90.8522 60.5995 91.6791 60.4153 92.3904 60.8523C93.9115 62.0263 92.6389 64.5585 91.8462 65.7925C91.9705 64.7299 92.7717 62.3048 91.8891 61.6193C91.3663 61.3793 90.6937 61.5164 90.0552 61.3964C88.6242 61.2122 87.2188 60.4924 86.3062 59.3955Z" fill="url(#paint14_linear_47_34)"/>
<path d="M24.6925 42.4585C24.2983 42.8056 23.9213 43.1355 23.5657 43.4654L26.4278 46.5718C26.7749 46.259 27.1348 45.9376 27.5161 45.6077L24.6925 42.4585Z" fill="url(#paint15_linear_47_34)"/>
<path d="M25.3954 47.5099L22.5504 44.4121C19.7054 47.09 18.33 48.7396 18.1458 48.9624C19.0412 49.6908 20.2924 50.7449 21.265 51.6403C22.0748 50.7406 23.4202 49.3352 25.3954 47.5099ZM20.9565 47.3257C21.415 47 22.0534 47.1115 22.379 47.5699C22.7046 48.0284 22.589 48.6625 22.1305 48.9881C21.672 49.3138 21.0422 49.2024 20.7166 48.7439C20.3952 48.2854 20.498 47.6513 20.9565 47.3257Z" fill="url(#paint16_linear_47_34)"/>
<path d="M30.3614 37.7495C28.6219 39.112 27.0794 40.3846 25.7383 41.5414L28.5705 44.6993C29.873 43.5852 31.3555 42.3727 33.0179 41.0787L30.3614 37.7495ZM30.4129 41.9099C29.9544 42.2356 29.316 42.1242 28.9903 41.6657C28.6647 41.2072 28.7761 40.5688 29.2346 40.2432C29.693 39.9176 30.3315 40.029 30.6571 40.4874C30.9827 40.9459 30.8713 41.5843 30.4129 41.9099Z" fill="url(#paint17_linear_47_34)"/>
<path d="M36.2869 33.3447C36.2612 33.3619 36.2398 33.379 36.2141 33.3961C35.37 33.9917 34.5645 34.5787 33.7847 35.1486L36.4026 38.5335C37.1524 37.9807 37.9365 37.4109 38.7506 36.8367C39.5647 36.2626 40.3659 35.7141 41.1372 35.1957L38.8277 31.5923C38.0265 32.1322 37.2038 32.6977 36.3598 33.289C36.3341 33.3104 36.3084 33.3276 36.2869 33.3447ZM36.9768 34.1202C37.4352 33.7946 38.0693 33.9017 38.395 34.3602C38.7206 34.8186 38.6092 35.4571 38.1508 35.7827C38.0908 35.8041 38.0693 35.8213 38.0479 35.8427C38.0222 35.8555 37.9965 35.8727 37.9708 35.8855C37.4995 36.2454 36.8611 36.134 36.5354 35.6756C36.2098 35.2171 36.3255 34.583 36.7839 34.2574C36.8439 34.2359 36.8654 34.2188 36.8868 34.1974C36.9125 34.1845 36.9382 34.1674 36.9639 34.1545C36.9639 34.1331 36.9682 34.1245 36.9768 34.1202Z" fill="url(#paint18_linear_47_34)"/>
<path d="M32.6625 35.98C32.2512 36.2885 31.8484 36.597 31.4585 36.8969L34.1193 40.2347C34.492 39.9476 34.8862 39.6519 35.2847 39.3563L32.6625 35.98Z" fill="url(#paint19_linear_47_34)"/>
<path d="M42.4229 29.2442L44.6723 32.8648C46.4462 31.7336 48.0872 30.7439 49.574 29.8912L47.5473 26.1636C46.0091 27.0376 44.291 28.0617 42.4229 29.2442ZM46.3262 30.6882C45.8677 31.0138 45.2293 30.9024 44.9037 30.444C44.578 29.9855 44.6894 29.3471 45.1479 29.0214C45.6064 28.6958 46.2448 28.8072 46.5704 29.2657C46.896 29.7284 46.7846 30.3668 46.3262 30.6882Z" fill="url(#paint20_linear_47_34)"/>
<path d="M57.0891 21.502C56.8191 21.6005 54.801 22.3417 51.3262 24.1199L53.2886 27.8433C55.6708 26.5964 57.449 25.8038 58.563 25.3367C58.0445 24.1242 57.4747 22.5903 57.0891 21.502ZM55.7737 25.2682C55.3152 25.5938 54.6811 25.4867 54.3554 25.0282C54.0298 24.5698 54.1412 23.9314 54.5997 23.6057C55.0581 23.2801 55.6923 23.3958 56.0179 23.8542C56.3435 24.3127 56.2364 24.9425 55.7737 25.2682Z" fill="url(#paint21_linear_47_34)"/>
<path d="M39.9844 30.8167L42.2852 34.4201C42.6966 34.1459 43.1079 33.8759 43.5064 33.6189L41.2526 29.9897C40.837 30.2597 40.4128 30.5339 39.9844 30.8167Z" fill="url(#paint22_linear_47_34)"/>
<path d="M48.7637 25.4868L50.7817 29.2016C51.2188 28.9531 51.643 28.7217 52.0543 28.4989L50.0919 24.7627C49.6592 24.9898 49.2221 25.234 48.7637 25.4868Z" fill="url(#paint23_linear_47_34)"/>
<path d="M60.1698 26.2022C59.7199 26.3222 59.3728 26.4936 59.2357 26.575C59.2186 26.5793 59.21 26.5836 59.1972 26.5921C59.1714 26.6007 59.1586 26.6093 59.1586 26.6093C56.4893 27.7233 49.5695 30.9411 39.6205 37.9251C39.5948 37.9422 39.5734 37.9594 39.5477 37.9765C39.5219 37.9936 39.5005 38.0108 39.4748 38.0279C29.5601 45.0505 24.2 50.4835 22.2504 52.6258C22.2504 52.6258 22.2419 52.6387 22.2247 52.6601C22.2119 52.6687 22.2033 52.6772 22.1947 52.6901C22.0705 52.7929 21.7963 53.0628 21.5435 53.4313C21.0636 54.134 20.7122 55.1323 21.672 56.0107C23.3173 57.5275 26.4494 53.6541 27.8034 52.1888C29.153 50.7406 33.6734 46.4002 41.5615 40.8344C49.4538 35.2772 55.0582 32.475 56.8792 31.6909C58.713 30.9068 63.4133 29.2572 62.5392 27.2006C62.0293 25.9966 60.9753 25.9923 60.1698 26.2022Z" fill="url(#paint24_linear_47_34)"/>
<path d="M58.3015 17.8086C57.9245 15.842 55.2509 16.5661 55.2509 16.5661C55.1737 16.3733 55.0923 16.1762 55.028 15.9748C54.9552 15.7691 54.8781 15.5635 54.8181 15.3535C54.4625 14.7537 53.1214 12.9112 50.3663 13.0869C47.0885 13.3011 45.8331 11.0903 45.8331 11.0903C45.8331 11.0903 48.3654 10.4561 51.0476 11.0174C52.7615 11.3773 53.7641 12.3799 54.3382 13.5454C54.2654 13.2326 52.8857 7.48685 53.2499 0.918443L53.2542 0.879883C47.1314 3.25359 49.5222 9.38925 49.5908 9.56063C45.1219 6.86129 42.0669 11.9086 42.0669 11.9086C44.9548 15.7991 48.7639 13.9481 50.3406 14.9465C51.3604 15.5977 54.2054 18.6698 48.9609 20.5594C44.9762 21.999 42.9924 19.3425 42.2769 17.9886C42.4997 17.5773 42.4911 17.0588 42.204 16.6518C41.8013 16.0776 41.0086 15.9405 40.4344 16.3476C39.8603 16.7503 39.7232 17.543 40.1302 18.1171C40.3445 18.4213 40.6658 18.597 41.0086 18.6398C42.8767 22.8003 41.1971 26.0952 37.1352 26.9735C34.9029 27.4449 30.3826 23.8329 33.6861 20.208C36.9853 16.5832 34.6716 14.0167 34.6716 14.0167C30.7125 14.0295 29.1658 17.3416 29.0501 17.6073C29.4914 15.4863 28.326 13.9396 28.326 13.9396C28.0132 13.5411 27.6533 13.2069 27.2762 12.9112C27.152 12.817 27.032 12.7356 26.9163 12.6542C26.5478 12.4014 26.1665 12.2043 25.7723 12.0329C25.6652 11.9858 25.5581 11.9429 25.4595 11.8958C24.8297 11.6515 24.1955 11.4887 23.6043 11.3859C23.5057 11.3688 23.4114 11.3516 23.3129 11.3345C21.869 11.1202 20.7549 11.2274 20.7164 11.2531C20.6778 11.2788 20.2022 12.2942 19.9194 13.7296C19.9023 13.8239 19.8852 13.9224 19.868 14.021C19.7652 14.6123 19.7095 15.2592 19.7266 15.9362C19.7309 16.0519 19.7352 16.1676 19.7438 16.279C19.7823 16.7032 19.838 17.1316 19.9494 17.5644C19.9751 17.7015 20.0223 17.8472 20.0694 17.9886C20.2194 18.447 20.4165 18.8927 20.6821 19.3211C20.6821 19.3211 21.749 20.9407 23.8956 21.2364C23.6043 21.2535 19.9666 21.6048 18.6255 25.3239C18.6255 25.3239 20.2665 28.3618 24.7868 26.4765C29.3114 24.587 31.1967 30.0542 30.0056 31.9995C27.8161 35.53 24.1441 36.0056 20.8578 32.8521C20.9306 32.5136 20.8749 32.1494 20.6607 31.8452C20.2579 31.2711 19.4653 31.134 18.8911 31.5367C18.317 31.9395 18.1799 32.7321 18.5869 33.3063C18.874 33.7133 19.3539 33.8976 19.8166 33.829C20.8535 34.9602 22.6873 37.7195 19.9923 40.9887C16.4531 45.2948 14.5122 41.58 14.2422 40.4017C13.8309 38.5764 16.8559 35.6114 14.1608 31.5839C14.1608 31.5839 8.37653 32.7664 9.42628 37.8909C9.42628 37.8909 4.36608 33.3791 0 38.4136C0.0214234 38.4222 0.0299906 38.4222 0.051414 38.4265C5.86571 39.9261 10.9816 43.3281 11.1573 43.4353C11.303 43.521 11.4401 43.6066 11.5815 43.6966C10.6731 42.7668 10.0647 41.4814 10.2961 39.7461C10.6645 37.0297 12.1171 34.8573 12.1171 34.8573C12.1171 34.8573 13.7795 36.7812 12.477 39.7976C11.3844 42.3341 12.6655 44.2108 13.1111 44.7421C13.291 44.8792 13.471 45.0206 13.6338 45.1534C13.8052 45.2905 13.9595 45.4233 14.118 45.5605C14.118 45.5605 12.5369 47.8399 14.2637 48.8554C15.999 49.8751 17.053 48.0541 17.053 48.0541C17.5672 47.4629 22.7902 41.1815 35.4942 32.1966C48.2154 23.2544 55.8893 20.4394 56.6305 20.1823C56.6091 20.1652 58.6786 19.7881 58.3015 17.8086ZM24.774 35.83L25.4681 36.0356C25.4895 36.0442 25.4981 36.0699 25.4767 36.087L24.8382 36.6183C24.8211 36.6312 24.7911 36.6226 24.7911 36.5969L24.7268 35.8685C24.7268 35.8428 24.7483 35.8214 24.774 35.83ZM23.6514 36.6055L24.5212 35.8814C24.534 35.8685 24.5555 35.8771 24.5555 35.8942L24.6283 36.6526C24.6326 36.6955 24.5983 36.7297 24.5555 36.7255L23.6642 36.6441C23.6428 36.6441 23.6342 36.6183 23.6514 36.6055ZM23.4671 36.7897L24.4783 36.8754C24.4912 36.8754 24.4955 36.8926 24.4869 36.9011L23.39 37.8138C23.3815 37.8223 23.3643 37.8138 23.3643 37.8009L23.4671 36.7897ZM22.3831 37.6595L23.2572 36.9354C23.2743 36.9226 23.2958 36.9354 23.2958 36.9568L23.2143 37.8523C23.2101 37.8952 23.1672 37.9252 23.1287 37.9123L22.396 37.7024C22.3703 37.6938 22.366 37.6724 22.3831 37.6595ZM22.3574 38.6193L22.2846 37.8995C22.2803 37.8737 22.306 37.8566 22.3274 37.8609L23.0344 38.0537C23.0558 38.058 23.0644 38.088 23.043 38.1051L22.4003 38.6364C22.3874 38.6536 22.3574 38.6407 22.3574 38.6193ZM25.1253 39.1506L22.5074 38.8035C22.4945 38.8035 22.486 38.7821 22.4988 38.7735L23.2272 38.1694C23.2529 38.148 23.2915 38.1437 23.3215 38.1608L25.1339 39.1334C25.1382 39.1377 25.1339 39.1506 25.1253 39.1506ZM23.4629 38.0237C23.4457 38.0151 23.4414 37.9894 23.4586 37.9766L24.6154 37.0168C24.6326 37.004 24.6754 36.9954 24.684 37.0125L25.331 39.0306L23.4629 38.0237ZM25.4895 38.8507C25.4895 38.8592 25.4767 38.8635 25.4724 38.8549L24.8468 36.8968C24.8382 36.8626 24.8468 36.8283 24.8725 36.8069L25.5966 36.2027C25.6095 36.1942 25.6223 36.2027 25.6223 36.2156L25.4895 38.8507ZM29.4871 19.1197C29.4871 19.0769 29.5342 19.0469 29.5728 19.064L30.7639 19.5696C30.8025 19.5868 30.8068 19.6382 30.7725 19.6596L29.5257 20.4694C29.4914 20.4908 29.4443 20.4651 29.4443 20.4266L29.4871 19.1197ZM27.4219 20.208L29.1143 19.1069C29.14 19.0897 29.1743 19.1112 29.1743 19.1412L29.1486 20.4994C29.1486 20.5765 29.0758 20.6322 29.0029 20.6151L27.4348 20.2852C27.4005 20.2723 27.3919 20.2252 27.4219 20.208ZM27.062 20.4951L28.8401 20.855C28.8616 20.8593 28.8701 20.8893 28.8487 20.9022L26.7106 22.2947C26.6892 22.3075 26.6635 22.2904 26.6721 22.2647L27.062 20.4951ZM24.9496 21.8148L26.6464 20.7093C26.6764 20.6879 26.7149 20.7179 26.7106 20.7522L26.3764 22.3204C26.3593 22.3975 26.2779 22.4361 26.2093 22.4061L24.9582 21.8833C24.9282 21.8748 24.9239 21.8362 24.9496 21.8148ZM21.9032 12.3285L24.4655 12.9755C24.4783 12.9798 24.4826 12.9969 24.4698 13.0055L23.6771 13.5197C23.6471 13.5368 23.6128 13.5368 23.5828 13.5197L21.8947 12.3457C21.8861 12.3414 21.8947 12.3285 21.9032 12.3285ZM23.4243 13.6439C23.4414 13.6568 23.4414 13.6825 23.4243 13.6911L22.1646 14.5137C22.1475 14.5266 22.1003 14.5309 22.096 14.5094L21.6847 12.4271L23.4243 13.6439ZM21.0934 15.2078C21.0806 15.2164 21.0677 15.2035 21.0677 15.1907L21.509 12.5899C21.509 12.5813 21.5262 12.5813 21.5262 12.5899L21.9204 14.608C21.9289 14.6423 21.9118 14.6765 21.8861 14.6937L21.0934 15.2078ZM21.9161 15.6406C21.9161 15.6663 21.8904 15.6791 21.869 15.6706L21.2006 15.3878C21.1791 15.3792 21.1749 15.3492 21.1963 15.3364L21.8947 14.8822C21.9161 14.8693 21.9418 14.8822 21.9375 14.9079L21.9161 15.6406ZM23.0687 15.0322L22.1218 15.6492C22.1089 15.6577 22.0875 15.6491 22.0875 15.632L22.1003 14.8736C22.1003 14.8308 22.1389 14.8008 22.1817 14.8094L23.0601 14.9936C23.0815 14.9936 23.0858 15.0193 23.0687 15.0322ZM22.2803 14.668C22.2674 14.6637 22.2632 14.6465 22.276 14.6423L23.4714 13.8624C23.4843 13.8539 23.4971 13.8667 23.4929 13.8796L23.2743 14.8736L22.2803 14.668ZM24.4569 14.1281L23.5057 14.7451C23.4886 14.7579 23.4671 14.7408 23.4714 14.7194L23.66 13.841C23.6685 13.7982 23.7157 13.7767 23.7542 13.7939L24.4569 14.0895C24.4698 14.0981 24.4698 14.1195 24.4569 14.1281ZM24.5812 13.9053C24.5812 13.931 24.5554 13.9439 24.534 13.9353L23.8528 13.6611C23.8313 13.6525 23.8271 13.6225 23.8485 13.6096L24.5469 13.1555C24.5683 13.1426 24.5897 13.1555 24.5897 13.1812L24.5812 13.9053ZM24.7097 23.5115L24.7311 22.2175C24.7311 22.1747 24.774 22.1447 24.8168 22.1618L26.0294 22.6546C26.0679 22.6717 26.0722 22.7231 26.0379 22.7446L24.7911 23.5587C24.7568 23.5801 24.7097 23.5544 24.7097 23.5115ZM29.5085 25.0283L24.9368 23.8714C24.9111 23.8672 24.9068 23.8329 24.9282 23.82L26.3422 22.8988C26.3936 22.8645 26.4578 22.8688 26.5093 22.9031L29.5214 25.0026C29.5342 25.0112 29.5257 25.0326 29.5085 25.0283ZM26.7963 22.6846C26.7663 22.6632 26.7663 22.616 26.8006 22.5989L29.0501 21.1335C29.0801 21.1121 29.1615 21.1035 29.17 21.1421L29.9027 24.8569L26.7963 22.6846ZM30.2155 24.5698C30.2112 24.587 30.1898 24.587 30.1855 24.5698L29.4828 20.9664C29.47 20.9064 29.4957 20.8465 29.5471 20.8122L30.9568 19.8953C30.9782 19.8824 31.0082 19.8995 31.0039 19.9252L30.2155 24.5698ZM33.369 28.3189L35.9313 28.9659C35.9441 28.9702 35.9484 28.9873 35.9355 28.9959L35.1429 29.5101C35.1129 29.5272 35.0786 29.5272 35.0486 29.5101L33.3605 28.3361C33.3519 28.3318 33.3562 28.3189 33.369 28.3189ZM34.8858 29.6343C34.9029 29.6472 34.9029 29.6729 34.8858 29.6815L33.6261 30.5041C33.609 30.517 33.5618 30.5213 33.5575 30.4998L33.1462 28.4175L34.8858 29.6343ZM32.5292 31.1811L32.9705 28.5803C32.9705 28.5717 32.9877 28.5717 32.9877 28.5803L33.3819 30.5984C33.3904 30.6326 33.3733 30.6669 33.3476 30.6841L32.5592 31.1982C32.5421 31.2068 32.5292 31.1939 32.5292 31.1811ZM33.3776 31.631C33.3776 31.6567 33.3519 31.6695 33.3305 31.661L32.662 31.3782C32.6406 31.3696 32.6363 31.3396 32.6578 31.3268L33.3562 30.8726C33.3776 30.8597 33.4033 30.8726 33.399 30.8983L33.3776 31.631ZM34.5344 31.0226L33.5875 31.6396C33.5747 31.6481 33.5533 31.6396 33.5533 31.6224L33.5661 30.864C33.5661 30.8212 33.6047 30.7912 33.6475 30.7997L34.5259 30.984C34.5473 30.984 34.5516 31.0097 34.5344 31.0226ZM33.7418 30.6584C33.7289 30.6541 33.7247 30.6369 33.7375 30.6327L34.9329 29.8528C34.9458 29.8443 34.9586 29.8571 34.9543 29.87L34.7358 30.864L33.7418 30.6584ZM35.9184 30.1185L34.9672 30.7355C34.9501 30.7483 34.9286 30.7312 34.9329 30.7098L35.1215 29.8314C35.13 29.7886 35.1772 29.7671 35.2157 29.7843L35.9184 30.0799C35.9313 30.0885 35.9355 30.1099 35.9184 30.1185ZM36.0427 29.8957C36.0427 29.9214 36.0169 29.9343 35.9955 29.9257L35.3143 29.6515C35.2928 29.6429 35.2885 29.6129 35.31 29.6L36.0084 29.1459C36.0298 29.133 36.0512 29.1459 36.0512 29.1716L36.0427 29.8957ZM45.2761 21.6434C45.2761 21.6177 45.3018 21.6048 45.3232 21.6134L45.9788 21.9262C46.0002 21.9348 46.0002 21.9648 45.9831 21.9776L45.2675 22.4018C45.2461 22.4146 45.2204 22.3975 45.2247 22.3761L45.2761 21.6434ZM44.0935 22.2047L45.0662 21.6263C45.0833 21.6177 45.1005 21.6306 45.1005 21.6477L45.0533 22.4061C45.049 22.4489 45.0105 22.4789 44.9676 22.4703L44.0978 22.2475C44.0807 22.2433 44.0764 22.2133 44.0935 22.2047ZM44.8691 22.5989C44.8819 22.6032 44.8862 22.6203 44.8734 22.6246L43.6437 23.353C43.6308 23.3616 43.618 23.3487 43.6222 23.3359L43.8836 22.3547L44.8691 22.5989ZM42.6753 23.0445L43.6522 22.4661C43.6694 22.4575 43.6908 22.4704 43.6865 22.4918L43.4637 23.3616C43.4509 23.4044 43.408 23.4258 43.3694 23.4087L42.6796 23.0873C42.6582 23.0788 42.6582 23.0573 42.6753 23.0445ZM42.4997 23.9914L42.5425 23.2673C42.5425 23.2416 42.5682 23.2287 42.5896 23.2373L43.258 23.5415C43.2795 23.5501 43.2795 23.5801 43.2623 23.5929L42.5468 24.0171C42.5211 24.0257 42.4954 24.0128 42.4997 23.9914ZM45.1476 24.9512L42.6153 24.1971C42.6025 24.1928 42.5982 24.1757 42.6111 24.1671L43.4251 23.6872C43.4551 23.67 43.4894 23.6701 43.5194 23.6915L45.1562 24.9383C45.1647 24.9426 45.1562 24.9555 45.1476 24.9512ZM43.6865 23.5758C43.6694 23.5629 43.6736 23.5372 43.6908 23.5287L44.9848 22.7617C45.0019 22.7489 45.049 22.7489 45.0533 22.7703L45.3747 24.8655L43.6865 23.5758ZM45.5546 24.7112C45.5546 24.7198 45.5375 24.7198 45.5375 24.7112L45.229 22.676C45.2247 22.6417 45.2376 22.6075 45.2675 22.5903L46.0774 22.1104C46.0902 22.1019 46.1031 22.1147 46.1031 22.1276L45.5546 24.7112Z" fill="url(#paint25_linear_47_34)"/>
<path d="M29.8728 58.4785C28.189 61.045 25.8281 65.2997 24.7312 70.9469C22.5161 82.3184 26.6551 92.9359 28.1675 96.6935C31.184 104.183 34.7102 106.994 33.969 112.842C33.8147 114.046 33.3391 117.817 30.2756 120.928C28.2747 122.954 26.0338 123.828 24.7569 124.214C25.781 123.82 27.512 122.98 28.9645 121.258C31.2953 118.494 31.3853 115.268 31.4025 113.866C31.4625 108.982 28.9945 105.46 27.5977 103.061C20.8193 91.4019 22.8545 77.781 23.2744 74.9702C23.8314 71.264 25.3054 65.2826 29.8728 58.4785Z" fill="url(#paint26_linear_47_34)"/>
<path d="M21.5687 95.7852C21.2002 97.9446 20.9774 101.3 22.6013 104.517C24.6879 108.643 28.3685 109.685 28.5056 112.731C28.5656 114.012 28.0128 116.022 24.5251 118.644C25.712 116.861 26.9588 114.316 26.3461 111.707C25.7591 109.218 23.891 108.425 22.4813 106.021C21.3373 104.076 20.4118 100.94 21.5687 95.7852Z" fill="url(#paint27_linear_47_34)"/>
<defs>
<linearGradient id="paint0_linear_47_34" x1="10.9754" y1="144.044" x2="10.9754" y2="155.038" gradientUnits="userSpaceOnUse">
<stop stop-color="#888888"/>
<stop offset="1" stop-color="#E7E7E7"/>
</linearGradient>
<linearGradient id="paint1_linear_47_34" x1="18.848" y1="144.048" x2="18.848" y2="155.042" gradientUnits="userSpaceOnUse">
<stop stop-color="#888888"/>
<stop offset="1" stop-color="#E7E7E7"/>
</linearGradient>
<linearGradient id="paint2_linear_47_34" x1="31.422" y1="143.885" x2="31.422" y2="156.731" gradientUnits="userSpaceOnUse">
<stop stop-color="#888888"/>
<stop offset="1" stop-color="#E7E7E7"/>
</linearGradient>
<linearGradient id="paint3_linear_47_34" x1="44.6034" y1="144.04" x2="44.6034" y2="155.038" gradientUnits="userSpaceOnUse">
<stop stop-color="#888888"/>
<stop offset="1" stop-color="#E7E7E7"/>
</linearGradient>
<linearGradient id="paint4_linear_47_34" x1="57.3613" y1="144.048" x2="57.3613" y2="155.038" gradientUnits="userSpaceOnUse">
<stop stop-color="#888888"/>
<stop offset="1" stop-color="#E7E7E7"/>
</linearGradient>
<linearGradient id="paint5_linear_47_34" x1="69.221" y1="144.048" x2="69.221" y2="155.038" gradientUnits="userSpaceOnUse">
<stop stop-color="#888888"/>
<stop offset="1" stop-color="#E7E7E7"/>
</linearGradient>
<linearGradient id="paint6_linear_47_34" x1="81.6272" y1="143.891" x2="81.6272" y2="155.193" gradientUnits="userSpaceOnUse">
<stop stop-color="#888888"/>
<stop offset="1" stop-color="#E7E7E7"/>
</linearGradient>
<linearGradient id="paint7_linear_47_34" x1="94.5111" y1="144.052" x2="94.5111" y2="155.038" gradientUnits="userSpaceOnUse">
<stop stop-color="#888888"/>
<stop offset="1" stop-color="#E7E7E7"/>
</linearGradient>
<linearGradient id="paint8_linear_47_34" x1="67.8182" y1="34.6245" x2="67.8182" y2="138.679" gradientUnits="userSpaceOnUse">
<stop stop-color="#888888"/>
<stop offset="1" stop-color="#E7E7E7"/>
</linearGradient>
<linearGradient id="paint9_linear_47_34" x1="35.1351" y1="54.1768" x2="35.1351" y2="131.534" gradientUnits="userSpaceOnUse">
<stop stop-color="#888888"/>
<stop offset="1" stop-color="#E7E7E7"/>
</linearGradient>
<linearGradient id="paint10_linear_47_34" x1="40.9356" y1="64.3232" x2="40.9356" y2="135.633" gradientUnits="userSpaceOnUse">
<stop stop-color="#888888"/>
<stop offset="1" stop-color="#E7E7E7"/>
</linearGradient>
<linearGradient id="paint11_linear_47_34" x1="71.674" y1="52.2061" x2="71.674" y2="61.4481" gradientUnits="userSpaceOnUse">
<stop stop-color="#888888"/>
<stop offset="1" stop-color="#E7E7E7"/>
</linearGradient>
<linearGradient id="paint12_linear_47_34" x1="77.6125" y1="57.416" x2="77.6125" y2="65.2415" gradientUnits="userSpaceOnUse">
<stop stop-color="#888888"/>
<stop offset="1" stop-color="#E7E7E7"/>
</linearGradient>
<linearGradient id="paint13_linear_47_34" x1="93.8458" y1="67.9775" x2="93.8458" y2="75.9861" gradientUnits="userSpaceOnUse">
<stop stop-color="#888888"/>
<stop offset="1" stop-color="#E7E7E7"/>
</linearGradient>
<linearGradient id="paint14_linear_47_34" x1="89.7039" y1="59.3955" x2="89.7039" y2="65.7925" gradientUnits="userSpaceOnUse">
<stop stop-color="#888888"/>
<stop offset="1" stop-color="#E7E7E7"/>
</linearGradient>
<linearGradient id="paint15_linear_47_34" x1="25.5409" y1="42.4585" x2="25.5409" y2="46.5718" gradientUnits="userSpaceOnUse">
<stop stop-color="#888888"/>
<stop offset="1" stop-color="#E7E7E7"/>
</linearGradient>
<linearGradient id="paint16_linear_47_34" x1="21.7706" y1="44.4121" x2="21.7706" y2="51.6403" gradientUnits="userSpaceOnUse">
<stop stop-color="#888888"/>
<stop offset="1" stop-color="#E7E7E7"/>
</linearGradient>
<linearGradient id="paint17_linear_47_34" x1="29.3781" y1="37.7495" x2="29.3781" y2="44.6993" gradientUnits="userSpaceOnUse">
<stop stop-color="#888888"/>
<stop offset="1" stop-color="#E7E7E7"/>
</linearGradient>
<linearGradient id="paint18_linear_47_34" x1="37.4609" y1="31.5923" x2="37.4609" y2="38.5335" gradientUnits="userSpaceOnUse">
<stop stop-color="#888888"/>
<stop offset="1" stop-color="#E7E7E7"/>
</linearGradient>
<linearGradient id="paint19_linear_47_34" x1="33.3716" y1="35.98" x2="33.3716" y2="40.2347" gradientUnits="userSpaceOnUse">
<stop stop-color="#888888"/>
<stop offset="1" stop-color="#E7E7E7"/>
</linearGradient>
<linearGradient id="paint20_linear_47_34" x1="45.9984" y1="26.1636" x2="45.9984" y2="32.8648" gradientUnits="userSpaceOnUse">
<stop stop-color="#888888"/>
<stop offset="1" stop-color="#E7E7E7"/>
</linearGradient>
<linearGradient id="paint21_linear_47_34" x1="54.9446" y1="21.502" x2="54.9446" y2="27.8433" gradientUnits="userSpaceOnUse">
<stop stop-color="#888888"/>
<stop offset="1" stop-color="#E7E7E7"/>
</linearGradient>
<linearGradient id="paint22_linear_47_34" x1="41.7454" y1="29.9897" x2="41.7454" y2="34.4201" gradientUnits="userSpaceOnUse">
<stop stop-color="#888888"/>
<stop offset="1" stop-color="#E7E7E7"/>
</linearGradient>
<linearGradient id="paint23_linear_47_34" x1="50.409" y1="24.7627" x2="50.409" y2="29.2016" gradientUnits="userSpaceOnUse">
<stop stop-color="#888888"/>
<stop offset="1" stop-color="#E7E7E7"/>
</linearGradient>
<linearGradient id="paint24_linear_47_34" x1="41.8556" y1="26.0977" x2="41.8556" y2="56.3567" gradientUnits="userSpaceOnUse">
<stop stop-color="#888888"/>
<stop offset="1" stop-color="#E7E7E7"/>
</linearGradient>
<linearGradient id="paint25_linear_47_34" x1="29.1737" y1="0.879883" x2="29.1737" y2="49.1656" gradientUnits="userSpaceOnUse">
<stop stop-color="#888888"/>
<stop offset="1" stop-color="#E7E7E7"/>
</linearGradient>
<linearGradient id="paint26_linear_47_34" x1="28.3655" y1="58.4785" x2="28.3655" y2="124.214" gradientUnits="userSpaceOnUse">
<stop stop-color="#888888"/>
<stop offset="1" stop-color="#E7E7E7"/>
</linearGradient>
<linearGradient id="paint27_linear_47_34" x1="24.7732" y1="95.7852" x2="24.7732" y2="118.644" gradientUnits="userSpaceOnUse">
<stop stop-color="#888888"/>
<stop offset="1" stop-color="#E7E7E7"/>
</linearGradient>
</defs>
</svg>
